<svg id="icon" height="512" viewBox="0 0 128 128" width="512" xmlns="http://www.w3.org/2000/svg"><g fill="#2f3a5a"><path d="m103.394 104.841h-22.294a1 1 0 0 1 -1-1v-26.022a1 1 0 0 1 2 0v25.022h21.3a1 1 0 0 1 0 2z"/><path d="m46.9 104.841h-22.3a1 1 0 0 1 0-2h21.3v-25.022a1 1 0 0 1 2 0v26.022a1 1 0 0 1 -1 1z"/><path d="m63.475 121.69a1 1 0 0 1 -1-1v-35.873a1 1 0 1 1 2 0v35.873a1 1 0 0 1 -1 1z"/></g><path d="m109.057 37.855a25.736 25.736 0 0 0 -42.474-27.394 25.725 25.725 0 0 0 -42.455 16.639 29.2 29.2 0 1 0 22.642 52.607 25.671 25.671 0 0 0 36.751 1.352 25.747 25.747 0 1 0 25.536-43.2z" fill="#f0f5f9"/><path d="m127 62.4a25.726 25.726 0 0 1 -43.473 18.655 25.666 25.666 0 0 1 -36.757-1.348 29.19 29.19 0 0 1 -45.7-22.049 29.19 29.19 0 0 0 43.2 12.047 25.666 25.666 0 0 0 36.757 1.348 25.726 25.726 0 0 0 43.473-18.653c0-.385-.012-.77-.024-1.155a25.817 25.817 0 0 1 2.524 11.155z" fill="#d9e2e9"/><path d="m101.24 89.153a26.615 26.615 0 0 1 -17.719-6.737 26.665 26.665 0 0 1 -36.9-1.406 30.2 30.2 0 0 1 -46.621-25.348 30.336 30.336 0 0 1 23.221-29.386 26.724 26.724 0 0 1 43.3-17.176 26.49 26.49 0 0 1 18.641-7.585 26.728 26.728 0 0 1 25.2 35.726 26.757 26.757 0 0 1 -9.119 51.912zm-17.719-9.094a1 1 0 0 1 .689.274 24.746 24.746 0 1 0 24.544-41.525 1 1 0 0 1 -.625-1.327 24.736 24.736 0 0 0 -40.824-26.328 1 1 0 0 1 -1.377.063 24.725 24.725 0 0 0 -40.806 15.989 1 1 0 0 1 -.787.871 28.2 28.2 0 1 0 21.865 50.808 1 1 0 0 1 1.308.15 24.67 24.67 0 0 0 35.323 1.3 1 1 0 0 1 .69-.275z" fill="#2f3a5a"/><path d="m66.583 10.461s2.79 2 3.834 7.09" fill="#dbe2eb"/><path d="m70.416 18.551a1 1 0 0 1 -.979-.8c-.955-4.651-3.412-6.46-3.437-6.478a1 1 0 1 1 1.165-1.625c.127.091 3.12 2.29 4.23 7.7a1 1 0 0 1 -.779 1.18.988.988 0 0 1 -.2.023z" fill="#2f3a5a"/><path d="m109.057 37.855a17.92 17.92 0 0 0 -9.534-1.17" fill="#dbe2eb"/><path d="m109.057 38.854a1.01 1.01 0 0 1 -.432-.1 17.16 17.16 0 0 0 -8.958-1.083 1 1 0 0 1 -.289-1.979 18.788 18.788 0 0 1 10.112 1.258 1 1 0 0 1 -.433 1.9z" fill="#2f3a5a"/><path d="m24.128 27.1s5.178-1.126 8.6 1.984" fill="#dbe2eb"/><path d="m32.73 30.081a1 1 0 0 1 -.672-.26c-2.991-2.715-7.672-1.755-7.72-1.746a1 1 0 0 1 -.423-1.955c.233-.051 5.725-1.2 9.488 2.221a1 1 0 0 1 -.673 1.74z" fill="#2f3a5a"/><path d="m63.475 111.62a6.933 6.933 0 1 0 6.932 6.933 6.933 6.933 0 0 0 -6.932-6.933z" fill="#e95a6a"/><path d="m63.475 126.485a7.933 7.933 0 1 1 7.932-7.932 7.941 7.941 0 0 1 -7.932 7.932zm0-13.865a5.933 5.933 0 1 0 5.932 5.933 5.94 5.94 0 0 0 -5.932-5.933z" fill="#2f3a5a"/><path d="m103.394 96.275a6.933 6.933 0 1 0 6.933 6.932 6.931 6.931 0 0 0 -6.933-6.932z" fill="#ffc943"/><path d="m103.394 111.14a7.933 7.933 0 1 1 7.933-7.933 7.942 7.942 0 0 1 -7.933 7.933zm0-13.866a5.933 5.933 0 1 0 5.933 5.933 5.94 5.94 0 0 0 -5.933-5.933z" fill="#2f3a5a"/><path d="m23.055 96.908a6.933 6.933 0 1 0 6.932 6.933 6.933 6.933 0 0 0 -6.932-6.933z" fill="#4fa4d1"/><path d="m23.055 111.773a7.933 7.933 0 1 1 7.932-7.932 7.941 7.941 0 0 1 -7.932 7.932zm0-13.865a5.933 5.933 0 1 0 5.932 5.933 5.939 5.939 0 0 0 -5.932-5.933z" fill="#2f3a5a"/></svg>