<svg id="Capa_1" enable-background="new 0 0 512 512" height="512" viewBox="0 0 512 512" width="512" xmlns="http://www.w3.org/2000/svg"><g><g><path d="m431.149 220.475h-15.56c.369-4.437.568-8.922.568-13.455 0-88.452-71.705-160.157-160.157-160.157-74.154 0-136.527 50.401-154.758 118.812-52.383 3.663-93.742 47.311-93.742 100.625 0 55.713 45.165 100.878 100.878 100.878h147.622 175.149c40.511 0 73.351-32.84 73.351-73.351 0-40.511-32.84-73.352-73.351-73.352z" fill="#9dc6fb"/><path d="m124.55 266.3c0 27.86 11.29 53.08 29.55 71.33 18.26 18.26 43.48 29.55 71.33 29.55h-117.05c-27.86 0-53.08-11.29-71.34-29.55-18.25-18.25-29.54-43.47-29.54-71.33 0-53.31 41.36-96.96 93.74-100.62 18.23-68.41 80.61-118.82 154.76-118.82 20.66 0 40.4 3.91 58.53 11.04-46.95 18.44-83.08 58.43-96.23 107.78-52.39 3.66-93.75 47.31-93.75 100.62z" fill="#80b5fc"/><g><circle cx="256" cy="350.477" fill="#ffd064" r="114.664"/><circle cx="256" cy="350.477" fill="#ffe07d" r="85.184"/></g><g><circle cx="256" cy="123.371" fill="#5766cb" r="21.396"/><path d="m264.864 142.841c-2.7 1.23-5.7 1.92-8.86 1.92-11.82 0-21.4-9.58-21.4-21.39 0-11.82 9.58-21.4 21.4-21.4 3.16 0 6.16.69 8.86 1.92-7.39 3.37-12.52 10.82-12.52 19.48 0 8.65 5.13 16.1 12.52 19.47z" fill="#3d4fc3"/></g><g><circle cx="176.623" cy="156.952" fill="#5766cb" r="21.396"/><path d="m185.487 137.482c-2.7-1.23-5.7-1.92-8.86-1.92-11.82 0-21.4 9.58-21.4 21.39 0 11.82 9.58 21.4 21.4 21.4 3.16 0 6.16-.69 8.86-1.92-7.39-3.37-12.52-10.82-12.52-19.48 0-8.65 5.13-16.1 12.52-19.47z" fill="#3d4fc3"/></g><g><circle cx="335.377" cy="156.956" fill="#5766cb" r="21.396"/><path d="m344.241 176.426c-2.7 1.23-5.7 1.92-8.86 1.92-11.82 0-21.4-9.58-21.4-21.39 0-11.82 9.58-21.4 21.4-21.4 3.16 0 6.16.69 8.86 1.92-7.39 3.37-12.52 10.82-12.52 19.48 0 8.65 5.13 16.1 12.52 19.47z" fill="#3d4fc3"/></g></g><g><path d="m488.321 236.645c-15.278-15.267-35.582-23.675-57.171-23.675h-7.599c.072-2 .109-3.988.109-5.95 0-92.448-75.212-167.66-167.66-167.66-74.117 0-139.404 48.804-160.576 119.329-10.744 1.281-21.158 4.145-31.025 8.54-3.784 1.685-5.485 6.119-3.8 9.902 1.686 3.784 6.12 5.487 9.902 3.8 9.877-4.399 20.396-7.017 31.264-7.78 3.196-.224 5.896-2.454 6.722-5.55 17.768-66.675 78.428-113.241 147.513-113.241 84.177 0 152.66 68.483 152.66 152.66 0 4.188-.183 8.503-.544 12.826-.174 2.09.534 4.159 1.955 5.702 1.42 1.544 3.422 2.422 5.52 2.422h15.56c17.585 0 34.124 6.849 46.565 19.281 12.435 12.446 19.284 28.984 19.284 46.569 0 36.315-29.54 65.86-65.85 65.86h-53.332c.227-3.039.345-6.108.345-9.204 0-51.287-31.772-95.287-76.664-113.369v-35.658l19.465-19.465c4.246 2.454 9.166 3.867 14.412 3.867 15.933 0 28.896-12.962 28.896-28.896s-12.963-28.896-28.896-28.896-28.896 12.963-28.896 28.896c0 5.252 1.415 10.176 3.874 14.425l-21.659 21.659c-1.407 1.406-2.197 3.314-2.197 5.303v33.824c-7.419-1.914-15.111-3.137-23-3.617v-77.276c12.308-3.312 21.396-14.564 21.396-27.903 0-15.933-12.963-28.896-28.896-28.896s-28.896 12.963-28.896 28.896c0 13.339 9.088 24.591 21.396 27.903v77.276c-7.889.48-15.581 1.703-23 3.617v-33.824c0-1.989-.79-3.897-2.197-5.303l-21.66-21.66c2.46-4.249 3.876-9.175 3.876-14.428 0-15.933-12.963-28.896-28.896-28.896s-28.896 12.963-28.896 28.896 12.963 28.896 28.896 28.896c5.246 0 10.165-1.412 14.41-3.866l19.467 19.467v35.658c-44.892 18.082-76.664 62.082-76.664 113.369 0 3.096.118 6.165.345 9.204h-25.799c-24.946 0-48.398-9.714-66.035-27.352-17.634-17.642-27.345-41.091-27.345-66.027 0-27.044 11.714-52.732 32.139-70.478 3.127-2.717 3.459-7.454.743-10.581-2.717-3.126-7.453-3.46-10.581-.743-23.705 20.597-37.301 50.412-37.301 81.802 0 28.941 11.271 56.156 31.737 76.633 20.472 20.472 47.691 31.747 76.643 31.747h27.869c11.262 55.807 60.674 97.96 119.751 97.96s108.49-42.153 119.751-97.96h55.399c44.581 0 80.85-36.274 80.85-80.86 0-21.59-8.408-41.893-23.679-57.175zm-152.944-93.585c7.662 0 13.896 6.234 13.896 13.896s-6.234 13.896-13.896 13.896-13.896-6.233-13.896-13.896 6.234-13.896 13.896-13.896zm-172.65 13.892c0-7.662 6.234-13.896 13.896-13.896s13.896 6.234 13.896 13.896-6.234 13.896-13.896 13.896-13.896-6.234-13.896-13.896zm79.377-33.581c0-7.662 6.234-13.896 13.896-13.896s13.896 6.234 13.896 13.896-6.234 13.896-13.896 13.896-13.896-6.234-13.896-13.896zm13.896 334.269c-59.09 0-107.164-48.073-107.164-107.164s48.074-107.163 107.164-107.163 107.164 48.073 107.164 107.164-48.074 107.163-107.164 107.163z"/><path d="m256 257.79c-51.104 0-92.68 41.581-92.68 92.69 0 51.104 41.576 92.68 92.68 92.68 18.442 0 36.267-5.412 51.545-15.65 3.441-2.306 4.361-6.964 2.055-10.406-2.306-3.441-6.964-4.361-10.406-2.055-12.8 8.577-27.736 13.111-43.195 13.111-42.833 0-77.68-34.847-77.68-77.68 0-42.838 34.847-77.69 77.68-77.69s77.68 34.852 77.68 77.69c0 16.618-5.173 32.465-14.961 45.829-2.447 3.342-1.723 8.035 1.619 10.482s8.035 1.723 10.482-1.619c11.684-15.953 17.859-34.865 17.859-54.692.002-51.11-41.574-92.69-92.678-92.69z"/><path d="m264.863 414.583c4.142 0 7.5-3.358 7.5-7.5v-11.508h.112c15.649 0 28.38-12.731 28.38-28.38 0-10.906-6.187-20.389-15.233-25.139 2.195-3.643 3.46-7.906 3.46-12.46 0-10.737-7.025-19.858-16.719-23.024v-12.702c0-4.142-3.358-7.5-7.5-7.5s-7.5 3.358-7.5 7.5v11.508h-7.02v-11.508c0-4.142-3.358-7.5-7.5-7.5s-7.5 3.358-7.5 7.5v11.508h-1.063-13.021c-4.142 0-7.5 3.358-7.5 7.5s3.358 7.5 7.5 7.5h5.521v60.197h-5.521c-4.142 0-7.5 3.358-7.5 7.5s3.358 7.5 7.5 7.5h13.021 1.063v11.508c0 4.142 3.358 7.5 7.5 7.5s7.5-3.358 7.5-7.5v-11.508h7.02v11.508c0 4.142 3.358 7.5 7.5 7.5zm7.612-34.008h-30.695v-26.76h23.083 7.612c7.377 0 13.38 6.002 13.38 13.38s-6.002 13.38-13.38 13.38zm-7.612-41.76h-23.083v-18.437h23.083c5.083 0 9.219 4.135 9.219 9.218s-4.136 9.219-9.219 9.219z"/></g></g></svg>