<svg height="512pt" viewBox="-4 0 511 512" width="512pt" xmlns="http://www.w3.org/2000/svg"><path d="m161.679688 445.648438h-78.972657s-37.183593 26.417968-37.183593 58.851562h62.097656l14.570312-7.863281 14.574219 7.863281h62.097656c0-32.433594-37.183593-58.851562-37.183593-58.851562zm0 0" fill="#efedee"/><path d="m355.394531 445.644531h-13.054687s-37.191406 26.421875-37.191406 58.855469h50.246093l26.429688-29.425781zm0 0" fill="#fb7073"/><path d="m408.25 445.644531h13.054688s37.1875 26.421875 37.1875 58.855469h-50.242188l-26.433594-29.425781zm0 0" fill="#fb7073"/><path d="m175.34375 7.5c49.167969 0 89.027344 31.535156 89.027344 70.4375 0 26.449219-18.425782 49.488281-45.671875 61.53125 0 0-10.195313 33.925781-39.648438 41.667969 0 0 3.582031-20.964844-3.707031-32.761719-49.171875 0-89.03125-31.535156-89.03125-70.4375s39.859375-70.4375 89.03125-70.4375zm0 0" fill="#e5ca61"/><path d="m8.011719 341.9375c0-107.125 54.109375-123.109375 114.179687-123.109375 28.082032 0 53.101563-2.054687 71.785156-4.242187 20.175782-2.363282 38.226563 12.546874 39.722657 32.804687 1.476562 19.914063 2.675781 49.851563 2.675781 94.546875zm0 0" fill="#e98f5e"/><path d="m136.765625 504.5-4.839844-33.152344h-19.464843l-4.839844 33.152344zm0 0" fill="#e16567"/><path d="m107.621094 449.457031v11.046875c0 8.046875 6.523437 14.570313 14.570312 14.570313 8.050782 0 14.574219-6.523438 14.574219-14.570313v-11.046875zm0 0" fill="#fb7073"/><path d="m355.394531 445.644531h52.855469v58.855469h-52.855469zm0 0" fill="#efedee"/><path d="m267.644531 341.945312c0-59.128906 47.972657-107.398437 108.300781-110.355468h11.753907c60.328125 2.957031 108.300781 51.226562 108.300781 110.355468zm0 0" fill="#596673"/><path d="m396.820312 232.394531c-3.003906-.378906-6.046874-.65625-9.121093-.804687h-11.753907c-60.328124 2.957031-108.300781 51.226562-108.300781 110.355468h30c0-56.117187 43.207031-102.441406 99.175781-109.550781zm0 0" fill="#4b5866"/><path d="m292.269531 439.304688h179.105469c13.601562 0 24.625-11.027344 24.625-24.625v-72.734376h-228.355469v72.734376c0 13.597656 11.023438 24.625 24.625 24.625zm0 0" fill="#596673"/><path d="m297.644531 414.679688v-72.734376h-30v72.734376c0 13.597656 11.023438 24.625 24.625 24.625h30c-13.601562 0-24.625-11.027344-24.625-24.625zm0 0" fill="#4b5866"/><path d="m122.191406 278.136719c113.570313 0 114.183594 63.800781 114.183594 63.800781 0 61.027344-51.121094 110.496094-114.183594 110.496094-63.058594 0-114.179687-49.46875-114.179687-110.496094 0 0 .613281-63.800781 114.179687-63.800781zm0 0" fill="#fac4ae"/><path d="m8.011719 341.9375h30c0-107.125 54.109375-123.109375 114.179687-123.109375 0 0-29.984375 0-30 0-20.648437 0-40.59375 1.890625-57.878906 8.71875-7.039062 2.78125-13.738281 6.449219-19.742188 11.074219-22.171874 17.074218-36.558593 48.078125-36.558593 103.316406zm0 0" fill="#de8250"/><path d="m496 341.945312c0 61.015626-51.117188 110.492188-114.179688 110.492188-63.058593 0-114.175781-49.476562-114.175781-110.492188 0 0 47.804688-19.144531 75.953125-56.003906 3.3125-4.324218 9.257813-5.601562 14.035156-2.976562 21.28125 11.722656 79.140626 42.007812 138.367188 58.980468zm0 0" fill="#fac4ae"/><path d="m267.644531 341.945312c0 61.015626 51.117188 110.492188 114.175781 110.492188 4.605469 0 9.140626-.269531 13.601563-.78125-55.898437-5.445312-101.480469-40.183594-97.777344-125.480469zm0 0" fill="#e2b09a"/><path d="m329.160156 43.867188c-49.171875 0-89.03125 31.535156-89.03125 70.4375 0 26.449218 18.425782 49.484374 45.675782 61.53125 0 0 10.191406 33.925781 39.644531 41.667968 0 0-3.578125-20.96875 3.710937-32.761718 49.167969 0 89.03125-31.535157 89.03125-70.4375 0-38.902344-39.859375-70.4375-89.03125-70.4375zm0 0" fill="#f9db69"/><path d="m125.675781 452.375c3.851563-.128906 7.691407-.402344 11.515625-.890625-55.96875-7.105469-99.179687-53.441406-99.179687-109.546875 0-18.390625 1.59375-34.097656 4.539062-47.496094-34.257812 18.902344-34.539062 47.492188-34.539062 47.496094 0 26.699219 9.785156 51.1875 26.074219 70.285156 21.820312 25.59375 54.554687 40.210938 88.105468 40.210938 1.164063.003906 2.324219-.019532 3.484375-.058594zm0 0" fill="#e2b09a"/><path d="m67.777344 331.417969c-4.144532 0-7.5 3.355469-7.5 7.5v10.578125c0 4.144531 3.355468 7.5 7.5 7.5 4.140625 0 7.5-3.355469 7.5-7.5v-10.578125c0-4.140625-3.359375-7.5-7.5-7.5zm0 0"/><path d="m176.589844 331.417969c-4.140625 0-7.5 3.355469-7.5 7.5v10.578125c0 4.144531 3.359375 7.5 7.5 7.5 4.144531 0 7.5-3.355469 7.5-7.5v-10.578125c0-4.140625-3.355469-7.5-7.5-7.5zm0 0"/><path d="m136.851562 354.496094c-3.117187-2.726563-7.855468-2.40625-10.582031.710937-.96875 1.105469-2.457031 1.742188-4.085937 1.742188s-3.117188-.636719-4.085938-1.742188c-2.726562-3.117187-7.460937-3.4375-10.582031-.710937-3.117187 2.726562-3.4375 7.464844-.710937 10.582031 3.816406 4.367187 9.421874 6.871094 15.378906 6.871094 5.957031 0 11.5625-2.503907 15.378906-6.871094 2.726562-3.117187 2.40625-7.855469-.710938-10.582031zm0 0"/><path d="m327.40625 331.417969c-4.140625 0-7.5 3.355469-7.5 7.5v10.578125c0 4.144531 3.359375 7.5 7.5 7.5 4.144531 0 7.5-3.355469 7.5-7.5v-10.578125c0-4.140625-3.355469-7.5-7.5-7.5zm0 0"/><path d="m436.222656 331.417969c-4.140625 0-7.5 3.355469-7.5 7.5v10.578125c0 4.144531 3.359375 7.5 7.5 7.5s7.5-3.355469 7.5-7.5v-10.578125c0-4.140625-3.359375-7.5-7.5-7.5zm0 0"/><path d="m396.484375 354.496094c-3.121094-2.726563-7.859375-2.40625-10.585937.710937-.964844 1.105469-2.457032 1.742188-4.082032 1.742188-1.628906 0-3.117187-.636719-4.085937-1.742188-2.726563-3.117187-7.464844-3.4375-10.582031-.710937-3.121094 2.726562-3.4375 7.464844-.710938 10.582031 3.816406 4.367187 9.421875 6.871094 15.378906 6.871094 5.957032 0 11.5625-2.503907 15.375-6.867188 2.730469-3.121093 2.410156-7.859375-.707031-10.585937zm0 0"/><path d="m425.683594 114.304688c0-42.976563-43.304688-77.9375-96.53125-77.9375-23.472656 0-45.011719 6.800781-61.757813 18.085937-5.449219-13.960937-15.699219-26.5-29.707031-36.0625-17.371094-11.859375-39.515625-18.390625-62.355469-18.390625-53.226562 0-96.53125 34.964844-96.53125 77.9375 0 41.683594 40.742188 75.832031 91.761719 77.84375 2.796875 8.023438 1.820312 19.707031 1.085938 24.101562-.886719 5.277344 4.105468 9.878907 9.300781 8.507813 27.6875-7.277344 40.144531-33.957031 43.765625-43.441406 4.371094-2.097657 8.511718-4.476563 12.414062-7.101563 7.050782 18.003906 22.054688 33.582032 42.640625 43.46875 3.621094 9.484375 16.078125 36.164063 43.765625 43.441406 5.179688 1.359376 10.1875-3.242187 9.300782-8.503906-.734376-4.390625-1.714844-16.082031 1.085937-24.105468 51.019531-2.011719 91.761719-36.160157 91.761719-77.84375zm-192.558594 7.949218c-5.203125 4.050782-11.0625 7.523438-17.46875 10.355469-1.992188.878906-3.507812 2.601563-4.144531 4.683594-.078125.253906-6.820313 21.675781-24.0625 32.179687.003906-7.796875-1.125-17.574218-5.738281-25.039062-1.367188-2.210938-3.78125-3.558594-6.378907-3.558594-44.957031 0-81.53125-28.234375-81.53125-62.9375s36.578125-62.9375 81.53125-62.9375c38.132813 0 71.464844 20.960938 79.617188 49.382812-10.164063 9.839844-17.070313 21.46875-20.273438 33.902344-2.007812 7.785156-2.550781 15.960938-1.554687 23.941406 0 .007813 0 .019532.003906.027344zm96.027344 54.988282c-2.601563 0-5.015625 1.347656-6.382813 3.558593-4.613281 7.464844-5.738281 17.242188-5.734375 25.039063-17.242187-10.503906-23.984375-31.921875-24.058594-32.164063-.628906-2.097656-2.148437-3.816406-4.152343-4.699219-22.015625-9.734374-36.800781-26.757812-40.363281-45.753906-3.625-19.320312 5.304687-38.09375 19.738281-50.644531.039062-.035156.074219-.078125.113281-.113281 14.945312-12.933594 36.675781-21.097656 60.835938-21.097656 44.957031 0 81.53125 28.234374 81.53125 62.9375.003906 34.703124-36.574219 62.9375-81.527344 62.9375zm0 0"/><path d="m243.863281 341.976562c0-.015624.003907-.027343.003907-.039062 0-38.941406-.90625-70.9375-2.695313-95.097656-1.773437-23.960938-24.246094-42.488282-48.078125-39.703125-23.75 2.78125-47.605469 4.191406-70.910156 4.191406-26.28125 0-59.621094 2.625-84.398438 23.101563-25.089844 20.734374-37.285156 55.898437-37.285156 107.507812 0 46.363281 27.722656 86.558594 67.929688 105.839844-11.980469 11.042968-30.417969 32.054687-30.417969 56.722656 0 4.140625 3.359375 7.5 7.5 7.5h153.339843c4.144532 0 7.5-3.359375 7.5-7.5 0-24.679688-18.210937-45.519531-30.445312-56.710938 40.195312-19.265624 67.914062-59.4375 67.957031-105.8125zm-196.519531-95.984374c16.453125-13.601563 39.535156-19.664063 74.839844-19.664063 23.882812 0 48.328125-1.445313 72.65625-4.292969 15.667968-1.832031 30.207031 10.164063 31.371094 25.910156 1.1875 16.003907 1.976562 35.550782 2.367187 58.375-.371094-.433593-.75-.867187-1.140625-1.300781-20.527344-22.8125-55.9375-34.382812-105.253906-34.382812-25.460938 0-52.210938 2.746093-75.738282 13.398437-10.308593 4.667969-19.917968 10.960938-27.785156 19.132813-.082031.085937-.171875.167969-.25.253906 4.445313-26.167969 14.023438-45.109375 28.933594-57.429687zm36.761719 208.046874c.519531.167969 11.128906 3.070313 16.003906 3.945313v2.519531c0 4.957032 1.644531 9.535156 4.414063 13.226563l-3.394532 23.269531h-47.34375c4.054688-19.992188 22.960938-36.988281 30.320313-42.960938zm42.785156 11.722657c-1.269531 1.164062-2.988281 1.8125-4.707031 1.8125-3.828125 0-7.074219-3.253907-7.074219-7.074219v-.761719c2.355469.136719 4.71875.195313 7.074219.195313 2.355468 0 4.71875-.0625 7.070312-.195313v.761719c0 2.0625-.890625 3.910156-2.300781 5.207031-.019531.019531-.042969.035157-.0625.054688zm-10.605469 31.238281 2.152344-14.746094c.023438.003906.046875.003906.066406.007813 2.460938.390625 4.894532.378906 7.355469 0 .023437-.003907.046875-.003907.070313-.007813l2.152343 14.746094zm43.976563-42.960938c7.359375 5.96875 26.265625 22.96875 30.320312 42.960938h-47.34375l-3.394531-23.273438c2.769531-3.6875 4.410156-8.265624 4.410156-13.226562v-2.515625c.253906-.042969 15.476563-3.777344 16.007813-3.945313zm-3.351563-14.710937c-22.347656 7.449219-47.105468 7.425781-69.457031 0-41.796875-13.933594-71.90625-52.277344-71.953125-97.296875-.019531-22.640625 22.640625-38.585938 41.550781-46.082031.085938-.035157.171875-.070313.257813-.105469 20.523437-8.09375 42.976562-10.207031 64.875-10.207031 30.457031 0 66.804687 3.808593 90.257812 25.519531 8.394532 7.773438 15.863282 19.058594 16.421875 30.828125 0 .019531 0 .035156.003907.050781-.046876 45.015625-30.160157 83.359375-71.957032 97.292969zm0 0"/><path d="m503.492188 414.679688v-72.339844c.003906-.128906.019531-.261719.019531-.394532 0-.191406-.007813-.382812-.023438-.570312-.304687-62.648438-50.898437-114.113281-115.429687-117.277344-.125-.003906-.246094-.007812-.367188-.007812h-11.757812c-.121094 0-.242188.003906-.367188.007812-64.726562 3.175782-115.433594 54.9375-115.433594 117.847656v72.734376c0 17.710937 14.414063 32.125 32.125 32.125h33.804688c.652344.324218 1.308594.644531 1.964844.960937-11.964844 10.988281-30.382813 31.925781-30.382813 56.734375 0 4.140625 3.359375 7.5 7.5 7.5h153.339844c4.144531 0 7.5-3.359375 7.5-7.5 0-24.808594-18.417969-45.75-30.382813-56.738281.65625-.316407 1.308594-.632813 1.960938-.957031h33.800781c17.714844 0 32.128907-14.414063 32.128907-32.125zm-15.289063-65.335938c-.820313 10.976562-3.449219 21.820312-7.796875 31.933594-12.6875 29.527344-39.207031 52.164062-71.710938 60.339844-17.617187 4.433593-36.347656 4.417968-53.957031-.046876-32.570312-8.257812-59.109375-31.039062-71.699219-60.714843-4.367187-10.304688-7.574218-22.519531-7.75-34.058594.359376-.164063 9.65625-4.710937 9.683594-4.726563 21.65625-11.3125 42.167969-25.667968 58.402344-44.070312 2.28125-2.585938 4.140625-6.503906 7.097656-8.335938 1.054688-.65625 2.421875-.742187 3.535156-.132812 15.050782 8.265625 30.375 16.050781 45.914063 23.363281 17.96875 8.453125 36.246094 16.261719 54.839844 23.242188 11.070312 4.128906 22.246093 7.96875 33.5625 11.371093-.039063.613282-.078125 1.222657-.121094 1.835938zm-87.460937 147.65625h-37.851563v-38.488281c.039063.007812.082031.011719.125.015625 12.453125 1.90625 25.136719 1.816406 37.59375 0 .042969-.003906.085937-.007813.132813-.015625zm-24.621094-257.910156h11.382812c53.078125 2.6875 95.355469 42.496094 100.46875 92.621094-21.433594-6.652344-42.351562-14.824219-62.890625-23.84375-21.730469-9.542969-43.097656-19.953126-63.847656-31.476563-2.71875-1.496094-5.792969-2.285156-8.886719-2.285156-7.09375 0-12.050781 3.984375-16.300781 9.300781-14.628906 18.304688-33.976563 32.28125-54.433594 43.402344-1.816406.988281-5.664062 2.976562-5.75 3.019531 5.960938-49.234375 47.84375-88.085937 100.257813-90.738281zm-83.863282 192.714844c-9.441406 0-17.125-7.683594-17.125-17.125v-15.933594c7.070313 12.480468 16.460938 23.703125 27.796876 33.058594zm51.484376 22.234374c.453124.144532 3.699218 1.113282 4.140624 1.238282v41.722656h-34.464843c4.054687-20 22.976562-37.003906 30.324219-42.960938zm76.144531 0c7.359375 5.96875 26.269531 22.964844 30.324219 42.960938h-34.46875v-41.722656c.492187-.136719 3.660156-1.082032 4.144531-1.238282zm68.605469-39.359374c0 9.441406-7.683594 17.125-17.125 17.125h-10.671876c11.339844-9.355469 20.730469-20.578126 27.796876-33.0625zm0 0"/></svg>